# File created by Blade
# Date/Time:  Wed Jan 21 19:14:05 2015
#---------------------------------------------------------
:version 1.10
:name HOM
:units
  mass 1.0
  length 1.000000
  angle deg
:documentation
     Acclaim Skeleton File
:root
   axis xyz
   order TX TY TZ RX RY RZ
   position 0.000000 0.000000 0.000000
   orientation 0 0 0
:bonedata
   begin
      id 1
      name RightUpLeg_dum
      direction -1.000000 0.000000 0.000000
      length 3.693983
      axis 0.0 0.0 0.0 xyz
   end
   begin
      id 2
      name LeftUpLeg_dum
      direction 1.000000 0.000000 0.000000
      length 3.693983
      axis 0.0 0.0 0.0 xyz
   end
   begin
      id 3
      name Spine_dum
      direction 0.000000 1.000000 0.000000
      length 2.392956
      axis 0.0 0.0 0.0 xyz
   end
   begin
      id 4
      name RightUpLeg
      direction 0.000000 -1.000000 0.000000
      length 15.795667
      axis 0.0 0.0 0.0 xyz
      dof rx ry rz
   end
   begin
      id 5
      name RightLeg
      direction 0.000000 -1.000000 0.000000
      length 14.766989
      axis 0.0 0.0 0.0 xyz
      dof rx ry rz
   end
   begin
      id 6
      name RightFoot
      direction 0.000000 -0.258819 0.965926
      length 4.962790
      axis 15.0 0.0 0.0 xyz
      dof rx ry rz
   end
   begin
      id 7
      name RightToeBase
      direction 0.000000 0.000000 1.000000
      length 2.952750
      axis 0.0 0.0 0.0 xyz
      dof rx ry rz
   end
   begin
      id 8
      name LeftUpLeg
      direction 0.000000 -1.000000 0.000000
      length 15.795667
      axis 0.0 0.0 0.0 xyz
      dof rx ry rz
   end
   begin
      id 9
      name LeftLeg
      direction 0.000000 -1.000000 0.000000
      length 14.766989
      axis 0.0 0.0 0.0 xyz
      dof rx ry rz
   end
   begin
      id 10
      name LeftFoot
      direction 0.000000 -0.258819 0.965926
      length 4.962790
      axis 15.0 0.0 0.0 xyz
      dof rx ry rz
   end
   begin
      id 11
      name LeftToeBase
      direction 0.000000 0.000000 1.000000
      length 2.952750
      axis 0.0 0.0 0.0 xyz
      dof rx ry rz
   end
   begin
      id 12
      name Spine
      direction 0.000000 1.000000 0.000000
      length 0.000000
      axis 0.0 0.0 0.0 xyz
      dof rx ry rz
   end
   begin
      id 13
      name Spine_dum1
      direction 0.000000 1.000000 0.000000
      length 13.207411
      axis 0.0 0.0 0.0 xyz
   end
   begin
      id 14
      name Spine_dum2
      direction 0.000000 1.000000 0.000000
      length 13.207411
      axis 0.0 0.0 0.0 xyz
   end
   begin
      id 15
      name Spine_dum3
      direction 0.000000 1.000000 0.000000
      length 19.250100
      axis 0.0 0.0 0.0 xyz
   end
   begin
      id 16
      name RightShoulder
      direction -1.000000 0.000000 0.000000
      length 8.140465
      axis 0.0 0.0 90.0 xyz
      dof rx ry rz
   end
   begin
      id 17
      name RightArm
      direction -1.000000 0.000000 0.000000
      length 10.649840
      axis 0.0 0.0 90.0 xyz
      dof rx ry rz
   end
   begin
      id 18
      name RightForeArm
      direction -1.000000 0.000000 0.000000
      length 8.304624
      axis 0.0 0.0 90.0 xyz
      dof ry rz rx
   end
   begin
      id 19
      name RightHand
      direction -1.000000 0.000000 0.000000
      length 0.000000
      axis 0.0 0.0 90.0 xyz
      dof rx ry rz
   end
   begin
      id 20
      name RightHand_dum1
      direction -1.000000 0.000000 0.000000
      length 3.937000
      axis 0.0 0.0 90.0 xyz
   end
   begin
      id 21
      name RightHand_dum2
      direction 0.000000 0.000000 0.000000
      length 0.000000
      axis 0.0 0.0 90.0 xyz
   end
   begin
      id 22
      name RightHandThumb1
      direction 0.000000 0.000000 1.000000
      length 3.937000
      axis 0.0 0.0 90.0 xyz
      dof rx rz ry
   end
   begin
      id 23
      name LeftShoulder
      direction 1.000000 0.000000 0.000000
      length 8.140465
      axis 0.0 0.0 -90.0 xyz
      dof rx ry rz
   end
   begin
      id 24
      name LeftArm
      direction 1.000000 0.000000 0.000000
      length 10.649840
      axis 0.0 0.0 -90.0 xyz
      dof rx ry rz
   end
   begin
      id 25
      name LeftForeArm
      direction 1.000000 0.000000 0.000000
      length 8.304624
      axis 0.0 0.0 -90.0 xyz
      dof ry rz rx
   end
   begin
      id 26
      name LeftHand
      direction 1.000000 0.000000 0.000000
      length 0.000000
      axis 0.0 0.0 -90.0 xyz
      dof rx ry rz
   end
   begin
      id 27
      name LeftHand_dum1
      direction 1.000000 0.000000 0.000000
      length 3.937000
      axis 0.0 0.0 -90.0 xyz
   end
   begin
      id 28
      name LeftHand_dum2
      direction 0.000000 0.000000 0.000000
      length 0.000000
      axis 0.0 0.0 -90.0 xyz
   end
   begin
      id 29
      name LeftHandThumb1
      direction 0.000000 0.000000 1.000000
      length 3.937000
      axis 0.0 0.0 -90.0 xyz
      dof rx rz ry
   end
   begin
      id 30
      name Head
      direction 0.000000 1.000000 0.000000
      length 4.527550
      axis 0.0 0.0 0.0 xyz
      dof rx ry rz
   end
:hierarchy
   begin
      root RightUpLeg_dum LeftUpLeg_dum Spine_dum
      RightUpLeg_dum RightUpLeg
      LeftUpLeg_dum LeftUpLeg
      Spine_dum Spine
      RightUpLeg RightLeg
      RightLeg RightFoot
      RightFoot RightToeBase
      LeftUpLeg LeftLeg
      LeftLeg LeftFoot
      LeftFoot LeftToeBase
      Spine Spine_dum1 Spine_dum2 Spine_dum3
      Spine_dum1 RightShoulder
      Spine_dum2 LeftShoulder
      Spine_dum3 Head
      RightShoulder RightArm
      RightArm RightForeArm
      RightForeArm RightHand
      RightHand RightHand_dum1 RightHand_dum2
      RightHand_dum2 RightHandThumb1
      LeftShoulder LeftArm
      LeftArm LeftForeArm
      LeftForeArm LeftHand
      LeftHand LeftHand_dum1 LeftHand_dum2
      LeftHand_dum2 LeftHandThumb1
   end

# File created by Blade
# Date/Time:  Wed Jan 21 19:13:57 2015
# Frame Rate: 120.000 fps
#------------------------------------------------------
:FULLY-SPECIFIED
:DEGREES
362
root -4.775133 34.065491 -1.037317 29.461064 62.545506 -81.930352
RightUpLeg 6.895725 -5.028602 -29.659580
RightLeg 68.154083 -0.000000 -0.000000
RightFoot 32.969924 -22.561685 18.078502
RightToeBase 42.574020 -0.000000 -0.000000
LeftUpLeg -108.028950 27.209517 -1.250949
LeftLeg 2.120094 -0.000000 -0.000000
LeftFoot -9.912471 0.840381 5.537444
LeftToeBase 5.120187 -0.000000 -0.000000
Spine -72.752703 -3.135027 21.025694
RightShoulder -35.635289 0.904185 -32.224130
RightArm -11.604192 -38.199085 47.615578
RightForeArm -16.873944 0.000000 3.457857
RightHand 5.066758 -0.000000 23.779999
RightHandThumb1 -24.326973 -0.000000 -32.862282
LeftShoulder -21.397588 -14.765302 58.287923
LeftArm 46.493454 -41.381779 -23.379441
LeftForeArm 30.823668 0.000000 34.898604
LeftHand -26.338424 -0.000000 18.838088
LeftHandThumb1 -26.253704 0.000000 33.147579
Head -27.589787 27.693910 36.460593
363
root -4.738790 34.067293 -1.032755 29.691395 62.616990 -81.696679
RightUpLeg 7.028295 -5.093981 -29.871458
RightLeg 68.030492 -0.000000 -0.000000
RightFoot 32.877513 -22.589203 18.246582
RightToeBase 42.640599 -0.000000 -0.000000
LeftUpLeg -107.745634 27.066492 -1.581445
LeftLeg 1.392062 -0.000000 -0.000000
LeftFoot -9.545429 0.275131 5.730396
LeftToeBase 4.698608 -0.000000 -0.000000
Spine -72.770386 -3.228941 20.901099
RightShoulder -35.771153 0.935607 -32.182405
RightArm -11.405714 -38.310498 47.413227
RightForeArm -16.920901 -0.000000 3.528210
RightHand 4.997552 -0.000000 23.748911
RightHandThumb1 -24.326973 -0.000000 -32.862282
LeftShoulder -21.388590 -14.659328 58.218572
LeftArm 46.517327 -41.268696 -23.537376
LeftForeArm 30.981264 -0.000000 35.029703
LeftHand -26.186401 -0.000000 18.468558
LeftHandThumb1 -26.253704 0.000000 33.147579
Head -27.585609 27.697687 36.415637
364
root -4.716317 34.074116 -1.031044 29.656334 62.741910 -81.886849
RightUpLeg 7.061172 -5.271074 -29.921789
RightLeg 67.907859 -0.000000 -0.000000
RightFoot 32.894024 -22.466414 18.211367
RightToeBase 42.586048 -0.000000 -0.000000
LeftUpLeg -107.700773 27.004714 -1.713279
LeftLeg 0.842479 -0.000000 -0.000000
LeftFoot -9.161475 -0.281357 5.657407
LeftToeBase 4.419346 -0.000000 -0.000000
Spine -72.841526 -3.214382 20.955597
RightShoulder -35.837004 0.922921 -32.204456
RightArm -11.328136 -38.148111 47.276725
RightForeArm -17.112441 -0.000000 3.619918
RightHand 4.960174 0.000000 23.688663
RightHandThumb1 -24.326973 -0.000000 -32.862282
LeftShoulder -21.293156 -14.632851 58.162329
LeftArm 46.305290 -41.069574 -23.414149
LeftForeArm 31.100803 -0.000000 35.017875
LeftHand -26.105952 -0.000000 18.258469
LeftHandThumb1 -26.253704 0.000000 33.147579
Head -27.611017 27.706871 36.303479
365
root -4.697248 34.080802 -1.031734 29.709815 62.866641 -81.978644
RightUpLeg 7.156557 -5.536500 -30.073913
RightLeg 67.738865 -0.000000 -0.000000
RightFoot 32.891315 -22.435893 18.423048
RightToeBase 42.569044 -0.000000 -0.000000
LeftUpLeg -107.702173 26.898892 -1.963196
LeftLeg 0.304615 -0.000000 -0.000000
LeftFoot -8.748138 -0.918759 5.608887
LeftToeBase 4.022025 -0.000000 -0.000000
Spine -72.897577 -3.226475 20.979320
RightShoulder -35.937342 0.878066 -32.217970
RightArm -11.143735 -38.122816 47.126177
RightForeArm -16.995247 -0.000000 3.555698
RightHand 5.058683 0.000000 23.600787
RightHandThumb1 -24.326973 -0.000000 -32.862282
LeftShoulder -21.252774 -14.555963 58.086938
LeftArm 46.152312 -40.843442 -23.209186
LeftForeArm 31.209738 -0.000000 34.860931
LeftHand -25.969426 -0.000000 17.951160
LeftHandThumb1 -26.253704 0.000000 33.147579
Head -27.667274 27.749280 36.201729
366
root -4.683676 34.088468 -1.029495 29.613921 62.988419 -82.222333
RightUpLeg 7.270852 -5.843619 -30.202418
RightLeg 67.551885 -0.000000 -0.000000
RightFoot 32.987432 -22.342839 18.491701
RightToeBase 42.566711 -0.000000 -0.000000
LeftUpLeg -107.749965 26.840748 -2.119883
LeftLeg -0.113081 -0.000000 0.000000
LeftFoot -8.381875 -1.489013 5.487338
LeftToeBase 3.747597 -0.000000 -0.000000
Spine -72.919647 -3.209454 21.013125
RightShoulder -35.945420 0.873624 -32.252557
RightArm -11.290260 -37.631008 46.986110
RightForeArm -17.373939 -0.000000 3.812686
RightHand 5.003828 -0.000000 23.611568
RightHandThumb1 -24.326973 -0.000000 -32.862282
LeftShoulder -21.172203 -14.470590 57.979803
LeftArm 46.012573 -40.598062 -22.881536
LeftForeArm 31.307336 -0.000000 34.559454
LeftHand -25.895217 -0.000000 17.813117
LeftHandThumb1 -26.253704 0.000000 33.147579
Head -27.773745 27.765881 36.105501
367
root -4.676800 34.096171 -1.029959 29.511681 63.077621 -82.456127
RightUpLeg 7.415480 -6.178057 -30.401199
RightLeg 67.378794 -0.000000 -0.000000
RightFoot 33.072863 -22.134299 18.524785
RightToeBase 42.471830 -0.000000 -0.000000
LeftUpLeg -107.833420 26.795281 -2.286933
LeftLeg -0.451199 -0.000000 0.000000
LeftFoot -8.128529 -1.947957 5.589883
LeftToeBase 3.699752 -0.000000 -0.000000
Spine -72.902049 -3.182302 21.028603
RightShoulder -35.975300 0.849876 -32.292727
RightArm -11.331701 -37.593292 46.942179
RightForeArm -17.319832 -0.000000 3.754195
RightHand 5.180955 -0.000000 23.417946
RightHandThumb1 -24.326973 -0.000000 -32.862282
LeftShoulder -21.125636 -14.388815 57.897184
LeftArm 45.849410 -40.255364 -22.453890
LeftForeArm 31.308690 -0.000000 34.171753
LeftHand -25.870550 -0.000000 17.684841
LeftHandThumb1 -26.253704 0.000000 33.147579
Head -27.889517 27.835524 36.024970
368
root -4.674381 34.105759 -1.029352 29.278570 63.143440 -82.875028
RightUpLeg 7.510505 -6.489783 -30.537228
RightLeg 67.203446 -0.000000 -0.000000
RightFoot 33.154895 -22.070353 18.651411
RightToeBase 42.358533 -0.000000 -0.000000
LeftUpLeg -108.024147 26.796985 -2.406668
LeftLeg -0.665772 -0.000000 0.000000
LeftFoot -7.818271 -2.352045 5.423492
LeftToeBase 3.361412 -0.000000 -0.000000
Spine -72.877376 -3.093145 21.086584
RightShoulder -35.987407 0.813001 -32.303485
RightArm -11.407699 -37.419099 46.828915
RightForeArm -17.134922 -0.000000 3.825167
RightHand 5.102042 0.000000 23.490756
RightHandThumb1 -24.326973 -0.000000 -32.862282
LeftShoulder -21.079880 -14.297262 57.792161
LeftArm 45.775892 -39.936485 -22.021964
LeftForeArm 31.402247 -0.000000 33.662895
LeftHand -25.820308 -0.000000 17.630549
LeftHandThumb1 -26.253704 0.000000 33.147579
Head -28.046805 27.847830 35.949231
369
root -4.678116 34.116975 -1.028009 28.980641 63.159184 -83.407305
RightUpLeg 7.544478 -6.722081 -30.628960
RightLeg 67.055686 -0.000000 -0.000000
RightFoot 33.202040 -21.977170 18.738458
RightToeBase 42.395916 -0.000000 -0.000000
LeftUpLeg -108.299062 26.877118 -2.445162
LeftLeg -0.767200 -0.000000 0.000000
LeftFoot -7.581771 -2.607356 5.516085
LeftToeBase 3.042261 -0.000000 -0.000000
Spine -72.860701 -2.940869 21.176475
RightShoulder -35.873176 0.943361 -32.473027
RightArm -11.879855 -37.059443 46.933217
RightForeArm -17.336309 -0.000000 3.997784
RightHand 5.347054 -0.000000 23.210352
RightHandThumb1 -24.326973 -0.000000 -32.862282
LeftShoulder -21.023652 -14.246108 57.724440
LeftArm 45.593747 -39.498715 -21.445505
LeftForeArm 31.455379 -0.000000 33.091155
LeftHand -25.866182 -0.000000 17.568975
LeftHandThumb1 -26.253704 0.000000 33.147579
Head -28.172512 27.827833 35.904497
370
root -4.682348 34.128197 -1.027633 28.655376 63.143966 -83.941417
RightUpLeg 7.606489 -6.875280 -30.715933
RightLeg 66.879625 -0.000000 -0.000000
RightFoot 33.319062 -21.813127 18.692189
RightToeBase 42.402049 -0.000000 -0.000000
LeftUpLeg -108.553490 26.957117 -2.474057
LeftLeg -0.848031 -0.000000 0.000000
LeftFoot -7.397717 -2.728918 5.792855
LeftToeBase 2.800780 -0.000000 -0.000000
Spine -72.785465 -2.794120 21.290930
RightShoulder -35.928295 0.875936 -32.450445
RightArm -11.729240 -37.125921 46.749510
RightForeArm -17.122613 -0.000000 3.977388
RightHand 5.363011 -0.000000 23.393859
RightHandThumb1 -24.326973 -0.000000 -32.862282
LeftShoulder -21.078570 -14.100820 57.631767
LeftArm 45.576561 -39.064404 -20.907177
LeftForeArm 31.501989 -0.000000 32.430925
LeftHand -25.870780 0.000000 17.534826
LeftHandThumb1 -26.253704 0.000000 33.147579
Head -28.346198 27.900139 35.871966
371
root -4.691179 34.139493 -1.023515 28.239955 63.106827 -84.583049
RightUpLeg 7.648822 -6.949833 -30.733791
RightLeg 66.721876 -0.000000 -0.000000
RightFoot 33.416247 -21.662580 18.541960
RightToeBase 42.422027 -0.000000 -0.000000
LeftUpLeg -108.846069 27.068363 -2.447988
LeftLeg -0.850181 -0.000000 0.000000
LeftFoot -7.261613 -2.693259 6.141175
LeftToeBase 2.598604 -0.000000 -0.000000
Spine -72.727931 -2.619174 21.418233
RightShoulder -35.834544 0.844158 -32.474430
RightArm -11.916204 -36.859667 46.693463
RightForeArm -17.305040 -0.000000 4.230736
RightHand 5.196495 -0.000000 23.327267
RightHandThumb1 -24.326973 -0.000000 -32.862282
LeftShoulder -21.015429 -13.914609 57.515381
LeftArm 45.547443 -38.757819 -20.400355
LeftForeArm 31.574904 -0.000000 31.776905
LeftHand -25.694388 -0.000000 17.350968
LeftHandThumb1 -26.253704 0.000000 33.147579
Head -28.411902 27.973638 35.902314
372
root -4.701715 34.151858 -1.018767 27.823108 63.061874 -85.248602
RightUpLeg 7.674185 -6.911850 -30.683653
RightLeg 66.559350 -0.000000 -0.000000
RightFoot 33.424693 -21.721432 18.626671
RightToeBase 42.435249 -0.000000 -0.000000
LeftUpLeg -109.139825 27.181378 -2.348859
LeftLeg -0.823152 -0.000000 0.000000
LeftFoot -7.100776 -2.465788 6.527732
LeftToeBase 2.316762 -0.000000 -0.000000
Spine -72.655433 -2.448466 21.564213
RightShoulder -35.835969 0.850645 -32.450149
RightArm -11.945600 -36.910558 46.526856
RightForeArm -17.149497 -0.000000 4.451147
RightHand 5.011569 -0.000000 23.402846
RightHandThumb1 -24.326973 -0.000000 -32.862282
LeftShoulder -21.036209 -13.854755 57.488531
LeftArm 45.454205 -38.231069 -19.746814
LeftForeArm 31.536298 -0.000000 31.038539
LeftHand -25.762967 -0.000000 17.164030
LeftHandThumb1 -26.253704 0.000000 33.147579
Head -28.540115 28.000063 35.966172
373
root -4.714075 34.164541 -1.010158 27.358162 63.010471 -85.976494
RightUpLeg 7.689457 -6.799865 -30.570035
RightLeg 66.388813 -0.000000 -0.000000
RightFoot 33.475135 -21.693009 18.566765
RightToeBase 42.468995 -0.000000 -0.000000
LeftUpLeg -109.487248 27.269834 -2.296330
LeftLeg -0.788004 -0.000000 0.000000
LeftFoot -6.990644 -2.174274 7.040838
LeftToeBase 2.242545 -0.000000 -0.000000
Spine -72.613542 -2.287413 21.752916
RightShoulder -35.776692 0.825835 -32.434117
RightArm -11.906152 -36.932141 46.414182
RightForeArm -17.255500 -0.000000 4.490207
RightHand 5.278830 -0.000000 23.348969
RightHandThumb1 -24.326973 -0.000000 -32.862282
LeftShoulder -21.019415 -13.665252 57.362671
LeftArm 45.542106 -37.862503 -19.125719
LeftForeArm 31.487546 -0.000000 30.200790
LeftHand -25.590695 0.000000 16.776032
LeftHandThumb1 -26.253704 0.000000 33.147579
Head -28.537750 28.060752 36.122385
374
root -4.726044 34.176961 -1.006292 27.073386 62.962872 -86.509923
RightUpLeg 7.721787 -6.623167 -30.488833
RightLeg 66.225326 -0.000000 -0.000000
RightFoot 33.444988 -21.688808 18.564980
RightToeBase 42.622201 -0.000000 -0.000000
LeftUpLeg -109.900680 27.211981 -2.471159
LeftLeg -0.728373 -0.000000 0.000000
LeftFoot -6.865399 -1.869575 7.565866
LeftToeBase 2.093498 -0.000000 -0.000000
Spine -72.586308 -2.176927 21.825876
RightShoulder -35.770278 0.763573 -32.334711
RightArm -11.769738 -36.852296 46.171836
RightForeArm -17.298205 -0.000000 4.646712
RightHand 5.120741 -0.000000 23.357416
RightHandThumb1 -24.326973 -0.000000 -32.862282
LeftShoulder -21.100210 -13.706582 57.298924
LeftArm 45.798851 -37.239075 -18.498156
LeftForeArm 31.464054 -0.000000 29.157816
LeftHand -25.218881 -0.000000 16.359758
LeftHandThumb1 -26.253704 0.000000 33.147579
Head -28.569913 28.126028 36.328468
